<svg xmlns="http://www.w3.org/2000/svg" width="256" height="256" viewBox="0 0 256 256">
  <rect width="256" height="256" rx="56" fill="#17343a"/>
  <circle cx="128" cy="126" r="72" fill="#f8faf7"/>
  <path d="M67 133c17-46 55-76 122-62-15-25-43-42-74-42-48 0-87 39-87 87 0 26 12 50 30 66-5-16-3-33 9-49z" fill="#2f6f73"/>
  <path d="M78 166c38 25 87 16 116-19 15-18 21-40 19-61 15 15 24 36 24 59 0 46-37 83-83 83-31 0-59-17-73-42-3-6-4-13-3-20z" fill="#4f86a8"/>
  <circle cx="172" cy="78" r="19" fill="#e9b44c"/>
  <circle cx="112" cy="132" r="22" fill="#17343a"/>
  <circle cx="112" cy="132" r="10" fill="#f8faf7"/>
</svg>
